<?xml version="1.0" encoding="utf-8"?>
<!-- Generator: Adobe Illustrator 19.0.0, SVG Export Plug-In . SVG Version: 6.00 Build 0)  -->
<svg version="1.1" id="Warstwa_1" xmlns="http://www.w3.org/2000/svg" xmlns:xlink="http://www.w3.org/1999/xlink" x="0px" y="0px"
	 viewBox="0 0 960 273.5" style="enable-background:new 0 0 960 273.5;" xml:space="preserve">
<style type="text/css">
	.st0{fill:#F2C218;}
	.st1{fill:#FFFFFF;}
</style>
<path id="XMLID_465_" class="st0" d="M168.8,6.5c40.5,1,67.6,7.1,93.5,34.2c25.9,27.2,75.5,55.6,74.6,96.1
	c-1,40.5-55.6,62.6-82.8,88.5s-51,43.4-91.5,42.4s-71.2-12.2-97.1-39.3S4.7,169.5,5.6,129s35.5-72.6,62.7-98.5S128.3,5.6,168.8,6.5z
	"/>
<g id="XMLID_1_">
	<path id="XMLID_2_" class="st1" d="M165.8,169.1v-33.7c0-5.3-0.6-9-1.8-11c-1.4-2.1-3.7-3.1-6.9-3.1c-4.1,0-6.9,1.4-8.5,4.2
		c-1.6,2.8-2.4,8.6-2.4,17.4v26.2h-21v-33.7c0-5.5-0.7-9.2-2-11.1c-1.2-2-3.5-3-6.8-3c-4.1,0-7,1.4-8.6,4.1
		c-1.6,2.8-2.4,8.6-2.4,17.5v26.2H84.3v-61.7h21.4v10.8c2.6-4.3,5.6-7.5,8.9-9.6c3.3-2.1,7.2-3.1,11.9-3.1c5,0,9.1,1,12.4,2.9
		c3.1,2,5.4,4.9,6.8,8.7c2.5-4,5.4-6.9,8.8-8.7c3.4-1.9,7.4-2.9,12.2-2.9c3.7,0,6.9,0.6,9.7,1.8c2.9,1.3,5.2,3.2,7,5.6
		c1.6,1.9,2.6,4.2,3.2,6.8c0.6,2.4,0.9,6.7,0.9,12.8v1.3v35.3H165.8z"/>
	<path id="XMLID_4_" class="st1" d="M269.1,107.4v61.7h-20v-10c-2.9,4.3-6.1,7.4-9.7,9.4c-3.6,2-7.7,3-12.5,3c-8.3,0-14.8-3-19.7-9
		c-2.4-3-4.2-6.5-5.5-10.5c-1.3-4-1.9-8.6-1.9-13.6c0-10.1,2.6-18.1,7.8-24c5.2-5.9,12.1-8.9,20.8-8.9c4.6,0,8.6,1,12,3
		c3.4,1.9,6.3,5,8.7,9.1v-10.2H269.1z M250,138.2c0-4.9-1.3-8.7-3.8-11.3c-2.6-2.8-6.1-4.3-10.5-4.3c-4.4,0-7.8,1.4-10.4,4.1
		c-2.6,2.8-3.9,6.7-3.9,11.5c0,4.8,1.3,8.6,3.9,11.4c2.5,2.7,5.9,4.1,10.4,4.1c4.4,0,7.9-1.4,10.5-4.1
		C248.7,146.9,250,143.1,250,138.2z"/>
	<path id="XMLID_7_" class="st1" d="M285.7,169.1v-61.7h20.5v14.5c2.2-5.3,5-9.3,8.6-11.9c3.7-2.6,8.2-4,13.4-4c1.2,0,2.1,0,2.6,0.1
		c0.4,0,0.9,0.1,1.2,0.1c0.4,0,0.8,0.1,1.4,0.2l-2.1,19.8c-1.5-0.5-2.8-0.8-3.9-1c-1.6-0.2-2.8-0.2-3.6-0.2c-5.3,0-9.4,1.6-12.3,4.9
		c-2.9,3.2-4.3,7.8-4.3,13.7v25.5H285.7z"/>
	<path id="XMLID_9_" class="st1" d="M385.8,127.7c-2.1-1.9-4.2-3.2-6.1-4.1c-1.8-0.9-3.8-1.3-6.2-1.3c-4.4,0-7.8,1.4-10.3,4.3
		c-2.6,2.8-3.8,6.7-3.8,11.6c0,4.7,1.3,8.5,4,11.2c2.6,2.9,6.1,4.3,10.7,4.3c2.2,0,4.2-0.4,6.2-1.3c2.1-1,4-2.4,5.5-4v18.9
		c-2.6,1.4-5.2,2.5-7.9,3.3c-2.8,0.7-5.5,1-8,1c-9.5,0-17.2-3.1-23-9.2c-2-2-3.6-4.3-4.9-6.7c-1.3-2.4-2.3-5.1-2.9-7.9
		c-0.7-2.9-1-6-1-9.3c0-9.7,3-17.6,9-23.7c6-6.1,13.7-9.1,23.2-9.1c3,0,5.8,0.3,8.5,1c2.6,0.7,5,1.6,7.1,2.9V127.7z"/>
	<path id="XMLID_11_" class="st1" d="M398.7,169.1v-61.7h21.8v61.7H398.7z M401.4,91.5h0.1c0-2.3,0.8-4.2,2.4-5.6
		c1.6-1.6,3.5-2.4,5.7-2.4c2.4,0,4.3,0.8,5.8,2.3c1.5,1.5,2.3,3.4,2.3,5.7c0,2.4-0.8,4.3-2.4,5.9c-1.5,1.6-3.5,2.4-5.7,2.4
		c-2.3,0-4.3-0.8-5.9-2.5C402.2,95.7,401.4,93.8,401.4,91.5z"/>
	<path id="XMLID_14_" class="st1" d="M438.2,169.1v-61.7h19.9v12.5c2.8-4.9,6.1-8.6,10-11c3.7-2.3,8.3-3.5,13.6-3.5
		c4,0,7.6,0.6,10.7,1.8c3.1,1.4,5.6,3.3,7.5,5.6c1.8,2.4,2.9,4.9,3.5,7.5c0.7,3.4,1,7.8,1,13.4v35.3h-21.9V136c0-5-0.8-8.6-2.4-10.8
		c-1.6-2.2-4.2-3.4-7.7-3.4c-4.5,0-7.8,1.7-9.9,5c-2.1,3.3-3.1,8.8-3.1,16.3v25.9H438.2z"/>
	<path id="XMLID_17_" class="st1" d="M559.2,169.1V74.4h21.4v59.9l22.4-26.9h27l-27.7,29.7l30.2,32h-28.7l-23.3-27.4v27.4H559.2z"/>
	<path id="XMLID_19_" class="st1" d="M702.6,107.4v31.5c0,7-0.5,12.2-1.6,15.4c-1.1,3.3-3.1,6.4-5.7,9c-2.6,2.7-5.9,4.7-10.1,6.1
		c-4,1.3-8.8,2-14.4,2c-5.6,0-10.3-0.7-14.2-2c-4-1.3-7.5-3.3-10.4-6.1c-2.6-2.5-4.5-5.5-5.6-8.9c-1.1-3.2-1.7-8.4-1.7-15.5v-31.5
		h20.8v32.9c0,5.2,0.9,8.9,2.6,11.1c1.6,2.4,4.3,3.5,8.3,3.5c3.9,0,6.6-1.1,8.3-3.4c1.7-2.3,2.5-6,2.5-11.2v-32.9H702.6z"/>
	<path id="XMLID_21_" class="st1" d="M718.4,169.1v-61.7h20.5v14.5c2.2-5.3,5-9.3,8.6-11.9c3.7-2.6,8.2-4,13.4-4
		c1.2,0,2.1,0,2.6,0.1c0.4,0,0.9,0.1,1.2,0.1c0.4,0,0.8,0.1,1.4,0.2l-2.1,19.8c-1.5-0.5-2.8-0.8-3.9-1c-1.6-0.2-2.8-0.2-3.6-0.2
		c-5.3,0-9.4,1.6-12.3,4.9c-2.9,3.2-4.3,7.8-4.3,13.7v25.5H718.4z"/>
	<path id="XMLID_23_" class="st1" d="M774.3,169.1V74.4h21.4v59.9l22.4-26.9h27l-27.7,29.7l30.2,32H819l-23.3-27.4v27.4H774.3z"/>
	<path id="XMLID_25_" class="st1" d="M920.6,107.4v61.7h-20v-10c-2.9,4.3-6.1,7.4-9.7,9.4c-3.6,2-7.7,3-12.5,3c-8.3,0-14.8-3-19.7-9
		c-2.4-3-4.2-6.5-5.5-10.5c-1.3-4-1.9-8.6-1.9-13.6c0-10.1,2.6-18.1,7.8-24c5.2-5.9,12.1-8.9,20.8-8.9c4.6,0,8.6,1,12,3
		c3.4,1.9,6.3,5,8.7,9.1v-10.2H920.6z M901.4,138.2c0-4.9-1.3-8.7-3.8-11.3c-2.6-2.8-6.1-4.3-10.5-4.3c-4.4,0-7.8,1.4-10.4,4.1
		c-2.6,2.8-3.9,6.7-3.9,11.5c0,4.8,1.3,8.6,3.9,11.4c2.5,2.7,5.9,4.1,10.4,4.1c4.4,0,7.9-1.4,10.5-4.1
		C900.1,146.9,901.4,143.1,901.4,138.2z"/>
</g>
</svg>
